<?xml version="1.0" encoding="utf-8"?>
<!-- Generator: Adobe Illustrator 19.0.0, SVG Export Plug-In . SVG Version: 6.00 Build 0)  -->
<svg version="1.1" id="Layer_1" xmlns="http://www.w3.org/2000/svg" xmlns:xlink="http://www.w3.org/1999/xlink" x="0px" y="0px"
	 viewBox="0 0 612 792" style="enable-background:new 0 0 612 792;" xml:space="preserve">
<style type="text/css">
	.st0{fill:#FFFFFF;}
</style>
<g id="XMLID_1_">
	<g id="XMLID_5_">
		<path id="XMLID_54_" class="st0" d="M-523,951c0-351.3,0-702.7,0-1054c624,0,1248,0,1872,0c0,351.3,0,702.7,0,1054
			C725,951,101,951-523,951z M-225,238.7c0,3.1,0,4.2,0,5.4c0,111.6,0,223.3-0.1,334.9c0,3.5,1.2,4.9,4.4,5.9
			c23.1,7.2,46.2,14.6,69.3,21.9c1.3,0.4,2.7,0.6,4.3,0.9c0-2.5,0-4.4,0-6.4c0-93.3,0-186.6,0.1-279.9c0-5,1.1-10.3,2.9-14.9
			c2.3-5.8,7.2-7.3,13.2-5.5c9.3,2.9,12.6,10.2,13.8,18.9c0.7,4.9,0.8,10,0.9,14.9c0.1,35.3,0,70.7,0.2,106c0,1.9,1.3,5,2.6,5.4
			c9.5,2.9,19,6.8,28.7,7.5c24,1.8,41.6-11.4,49.7-35.5c6.2-18.4,5.7-37.3,4.1-56.3c-2.8-33.2-17.9-58.6-47.3-75.1
			c-20-11.3-41.5-18.5-63.4-24.8C-169,254-196.5,246.6-225,238.7z M903.9,510.9c0,6,0,11.3,0,16.6c0,6.8,0,6.8,6.7,6.8
			c84.2,0,168.3,0,252.5,0c2.2,0,4.3,0,6.5-0.1c41.9-2,69.9-44.1,55.9-83.6c-8.4-23.8-32-42-60.8-41.9c-64.7,0.4-129.3,0.1-194,0.1
			c-13,0-19.7-6.8-19.7-19.7c0-15.2,0-30.3,0-45.5c0-6.6,0-6.6,6.5-6.6c85.2,0,170.3,0,255.5,0c1.3,0,2.7-0.1,4,0
			c2.7,0.2,3.5-1.1,3.5-3.5c-0.1-4.5-0.3-9,0.1-13.5c0.4-4.9-1.1-6.5-6.3-6.5c-101.5,0.2-203,0.1-304.5,0c-4.3,0-6,0.8-6,5.7
			c0.3,25,0.6,50,0,75c-0.6,21.1,16.1,38.5,38.3,38.1c43.2-0.7,86.3-0.2,129.5-0.2c23.2,0,46.3-0.2,69.5,0.1
			c28.2,0.3,47.2,25.5,39,51.4c-5.3,16.7-20.5,27.3-39.3,27.3c-76.5,0-153,0-229.5,0C909,510.9,906.9,510.9,903.9,510.9z
			 M334.4,313.7c-29.8,0-59.7,0-89.5,0c-14.7,0-29.3,0.1-44-0.1c-3.7,0-5.2,1-4.9,4.8c0.3,3.3,0,6.7,0.1,10c0.1,9.8-1.2,8.6,8.4,8.6
			c65.5,0,131,0,196.5,0c12.5,0,25-0.2,37.5,0.1c25.3,0.7,42,25.1,33.3,48.4c-5.5,14.6-18.8,23.2-36.1,23.2
			c-59.8,0-119.6-0.1-179.5,0c-33.5,0.1-59.5,25.5-59.9,58.7c-0.3,20.7,0,41.3-0.1,62c0,3.8,1.2,4.9,4.9,4.9c12.5-0.2,25-0.2,37.5,0
			c4.1,0.1,5-1.4,5-5.2c-0.2-19.3-0.1-38.7-0.1-58c0-8.5,1.5-16.5,6.6-23.6c8-11.1,19.1-15.5,32.4-15.5c60,0,120,0.1,180,0
			c39.3-0.1,67.1-37,56.8-74.9c-7.1-26.3-30-43.5-58.7-43.6C418.4,313.6,376.4,313.7,334.4,313.7z M506.1,534
			c1.9,0.1,3.4,0.3,4.9,0.3c44.2,0,88.3,0.1,132.5-0.1c5.4,0,11-0.6,16.3-2c26.4-7,44-30.1,44.1-57.8c0.1-33,0-66,0.1-99
			c0-3.1,0-6.4,0.6-9.4c3.8-17.6,17.8-28.9,36.2-28.9c36.3-0.1,72.7,0,109,0c1.9,0,3.9,0,5.9,0c0-8.1,0-15.5,0-23.1
			c-1.8-0.1-3.3-0.3-4.7-0.3c-44.7,0-89.3,0-134,0c-3.8,0-7.7,0.1-11.4,0.9c-30,6.1-48.8,29.2-48.8,59.9c0,32.2,0,64.3-0.1,96.5
			c0,4.3-0.3,8.7-1.3,12.9c-4.2,16.7-18.1,27-36.2,27.1c-35.7,0.1-71.3,0-107,0c-1.9,0-3.9,0-6,0C506.1,518.9,506.1,526.2,506.1,534
			z M-132.3,529c17.1-6,33.3-12,49.7-17.4c17.6-5.8,34.4-14.2,53.3-16.1c9.9-1,19.7-1,29,2.8c6.1,2.5,6.6,7,1.1,10.7
			c-3.1,2.1-6.7,3.7-10.2,5C-49,528.1-88.4,542.1-127.8,556c-3.4,1.2-4.7,2.7-4.6,6.3c0.2,11.7,0.1,23.3,0.1,35c0,1.5,0.2,3.1,0.4,5
			c2-0.6,3.5-1,4.9-1.5c54.5-19.6,109.1-39,163.5-59.1c10.3-3.8,19.7-10.1,29-16.2c6.4-4.2,9.1-10.9,7.7-18.8
			c-1.1-6-4.7-10.7-9.7-13.3c-10.2-5.4-20.7-10.7-31.6-14.4c-35.3-11.8-71.6-15.2-108.4-9.8c-17.5,2.6-34.7,7.6-51.9,11.7
			c-1.5,0.3-3.6,2.3-3.6,3.6C-132.4,499.1-132.3,513.6-132.3,529z M-240,521.1c-4.7,1.7-8.5,3.1-12.4,4.4
			c-16.3,5.4-32,13.7-49.6,13.8c-7.7,0.1-15.5-1-23.1-2.5c-2.5-0.5-6.2-3.6-6.4-5.6c-0.1-2.2,3-5.1,5.3-6.9c2.2-1.7,5-2.5,7.7-3.4
			c24.2-8.7,48.4-17.5,72.7-26c4.4-1.5,6.2-3.4,6-8.3c-0.4-11.5-0.1-23-0.2-34.5c0-1.4-0.2-2.8-0.4-4.5c-1.4,0.5-2.4,0.8-3.3,1.1
			c-37.8,13.5-75.8,26.5-113.4,40.6c-12.5,4.7-24.4,11.3-36.1,17.8c-6.7,3.7-10.8,10.1-9.7,18.3c0.8,6.5,4.7,11.3,9.6,15.2
			c8.9,7.2,19.6,10.3,30.2,13.7c39.5,12.3,79.6,14.8,120.2,7.4c1.1-0.2,2.7-2,2.7-3C-239.9,546.5-240,534.2-240,521.1z M43,608
			c10.6,0,18.1-7.4,18.2-18.1c0.1-10.8-7.7-18.8-18.2-18.8c-10.6,0-18.4,8-18.3,18.7C24.8,600.4,32.4,608,43,608z M1298.1,510.4
			c-4.5-0.8-4.6-0.8-5.9,3.6c-1.7,5.5-3.5,10.9-5.6,17.5c-2.1-6.7-4-12.2-5.5-17.8c-0.9-3.5-2.6-4.6-5.7-3.3c0,8.1,0,15.9,0,23.7
			c0.6,0,1.2,0.1,1.9,0.1c0-6,0-12,0-18c0.5,0,1,0,1.6,0c1.4,4.6,2.7,9.2,4.4,13.6c0.7,1.7,2.3,3,3.5,4.5c1.1-1.5,2.5-2.8,3.1-4.4
			c1.8-4.8,3.3-9.7,5-14.6c0.6,0.1,1.1,0.2,1.7,0.3c0,6.2,0,12.5,0,18.7c0.5,0,1.1,0,1.6-0.1
			C1298.1,526.3,1298.1,518.4,1298.1,510.4z M1261.3,512.8c0,7.2,0,14.3,0,21.4c0.6,0,1.2,0,1.8,0c2.3-7-0.3-14.5,1.3-21.3
			c2.4-0.5,4.5-1,6.6-1.4c-0.1-0.3-0.2-0.5-0.3-0.8c-5.6,0-11.2,0-16.8,0c0,0.4,0,0.8,0,1.2C1256.1,512.2,1258.3,512.4,1261.3,512.8
			z"/>
		<path id="XMLID_53_" d="M-225,238.7c28.5,7.9,56,15.3,83.4,23.1c21.9,6.3,43.4,13.6,63.4,24.8c29.4,16.6,44.5,41.9,47.3,75.1
			c1.6,19,2.1,37.9-4.1,56.3c-8.1,24.1-25.7,37.3-49.7,35.5c-9.7-0.7-19.2-4.6-28.7-7.5c-1.3-0.4-2.6-3.6-2.6-5.4
			c-0.2-35.3-0.1-70.7-0.2-106c0-5-0.2-10-0.9-14.9c-1.2-8.7-4.5-16-13.8-18.9c-6-1.9-10.8-0.4-13.2,5.5c-1.8,4.7-2.9,9.9-2.9,14.9
			c-0.2,93.3-0.1,186.6-0.1,279.9c0,2,0,4,0,6.4c-1.6-0.3-3-0.5-4.3-0.9c-23.1-7.3-46.2-14.7-69.3-21.9c-3.2-1-4.4-2.3-4.4-5.9
			c0.1-111.6,0.1-223.3,0.1-334.9C-225,242.9-225,241.8-225,238.7z"/>
		<path id="XMLID_52_" d="M903.9,510.9c2.9,0,5.1,0,7.2,0c76.5,0,153,0,229.5,0c18.9,0,34-10.6,39.3-27.3
			c8.3-25.9-10.7-51.1-39-51.4c-23.2-0.2-46.3-0.1-69.5-0.1c-43.2,0-86.3-0.5-129.5,0.2c-22.2,0.4-38.9-17-38.3-38.1
			c0.7-25,0.3-50,0-75c-0.1-4.9,1.7-5.7,6-5.7c101.5,0.1,203,0.1,304.5,0c5.2,0,6.7,1.6,6.3,6.5c-0.4,4.5-0.1,9-0.1,13.5
			c0,2.5-0.8,3.8-3.5,3.5c-1.3-0.1-2.7,0-4,0c-85.2,0-170.3,0-255.5,0c-6.5,0-6.5,0-6.5,6.6c0,15.2,0,30.3,0,45.5
			c0,12.9,6.8,19.7,19.7,19.7c64.7,0,129.3,0.3,194-0.1c28.8-0.2,52.3,18,60.8,41.9c14,39.5-14,81.6-55.9,83.6
			c-2.2,0.1-4.3,0.1-6.5,0.1c-84.2,0-168.3,0-252.5,0c-6.7,0-6.7,0-6.7-6.8C903.9,522.3,903.9,517,903.9,510.9z"/>
		<path id="XMLID_51_" d="M334.4,313.7c42,0,84-0.1,126,0c28.6,0.1,51.6,17.2,58.7,43.6c10.3,37.9-17.6,74.7-56.8,74.9
			c-60,0.2-120,0.1-180,0c-13.3,0-24.4,4.3-32.4,15.5c-5.1,7.1-6.6,15.1-6.6,23.6c0,19.3-0.1,38.7,0.1,58c0,3.8-0.9,5.3-5,5.2
			c-12.5-0.2-25-0.2-37.5,0c-3.7,0-4.9-1.1-4.9-4.9c0.2-20.7-0.1-41.3,0.1-62c0.5-33.2,26.5-58.6,59.9-58.7
			c59.8-0.1,119.6,0,179.5,0c17.4,0,30.6-8.6,36.1-23.2c8.8-23.3-8-47.8-33.3-48.4c-12.5-0.3-25-0.1-37.5-0.1c-65.5,0-131,0-196.5,0
			c-9.5,0-8.3,1.2-8.4-8.6c0-3.3,0.2-6.7-0.1-10c-0.3-3.8,1.2-4.9,4.9-4.8c14.7,0.2,29.3,0.1,44,0.1
			C274.8,313.7,304.6,313.7,334.4,313.7z"/>
		<path id="XMLID_50_" d="M506.1,534c0-7.9,0-15.2,0-23.1c2.2,0,4.1,0,6,0c35.7,0,71.3,0.1,107,0c18.1,0,31.9-10.4,36.2-27.1
			c1-4.1,1.3-8.6,1.3-12.9c0.1-32.2,0-64.3,0.1-96.5c0-30.7,18.9-53.9,48.8-59.9c3.7-0.8,7.6-0.9,11.4-0.9c44.7-0.1,89.3,0,134,0
			c1.5,0,2.9,0.2,4.7,0.3c0,7.6,0,15,0,23.1c-2.1,0-4,0-5.9,0c-36.3,0-72.7-0.1-109,0c-18.4,0-32.5,11.3-36.2,28.9
			c-0.7,3.1-0.6,6.3-0.6,9.4c0,33,0.1,66-0.1,99c-0.1,27.7-17.7,50.8-44.1,57.8c-5.2,1.4-10.8,2-16.3,2
			c-44.2,0.2-88.3,0.1-132.5,0.1C509.5,534.3,508.1,534.2,506.1,534z"/>
		<path id="XMLID_49_" d="M-132.3,529c0-15.4-0.1-29.8,0.2-44.3c0-1.3,2.2-3.2,3.6-3.6c17.3-4.1,34.4-9.1,51.9-11.7
			c36.8-5.4,73.1-2,108.4,9.8c10.9,3.7,21.3,9,31.6,14.4c5,2.6,8.6,7.3,9.7,13.3c1.5,7.9-1.3,14.6-7.7,18.8
			c-9.3,6-18.7,12.4-29,16.2c-54.3,20.1-109,39.5-163.5,59.1c-1.4,0.5-2.8,0.8-4.9,1.5c-0.1-1.9-0.4-3.5-0.4-5
			c0-11.7,0.1-23.3-0.1-35c-0.1-3.7,1.2-5.2,4.6-6.3C-88.4,542.1-49,528.1-9.6,514c3.6-1.3,7.1-2.9,10.2-5c5.5-3.7,5.1-8.2-1.1-10.7
			c-9.3-3.8-19.2-3.8-29-2.8c-18.8,1.8-35.7,10.3-53.3,16.1C-99,517-115.2,523-132.3,529z"/>
		<path id="XMLID_48_" d="M-240,521.1c0,13,0.1,25.4-0.1,37.7c0,1.1-1.6,2.8-2.7,3c-40.7,7.4-80.8,4.9-120.2-7.4
			c-10.7-3.3-21.3-6.5-30.2-13.7c-4.9-4-8.8-8.8-9.6-15.2c-1-8.3,3.1-14.6,9.7-18.3c11.7-6.5,23.6-13.2,36.1-17.8
			c37.6-14,75.6-27.1,113.4-40.6c0.9-0.3,1.8-0.6,3.3-1.1c0.2,1.7,0.4,3.1,0.4,4.5c0,11.5-0.3,23,0.2,34.5c0.2,4.9-1.6,6.8-6,8.3
			c-24.3,8.5-48.5,17.2-72.7,26c-2.6,1-5.5,1.7-7.7,3.4c-2.3,1.8-5.5,4.6-5.3,6.9c0.1,2.1,3.8,5.2,6.4,5.6
			c7.6,1.4,15.4,2.6,23.1,2.5c17.7-0.1,33.3-8.4,49.6-13.8C-248.5,524.3-244.6,522.8-240,521.1z"/>
		<path id="XMLID_45_" d="M43,608c-10.6,0-18.2-7.6-18.3-18.1c-0.1-10.7,7.7-18.7,18.3-18.7c10.6,0,18.3,8,18.2,18.8
			C61.1,600.5,53.6,608,43,608z M43.3,605.1c8.9-0.1,15.2-6.6,15.2-15.6c0-8.9-6.6-15.5-15.4-15.5c-9,0-15.5,6.7-15.3,16
			C27.9,599.1,34.1,605.2,43.3,605.1z"/>
		<path id="XMLID_44_" d="M1298.1,510.4c0,8,0,15.8,0,23.7c-0.5,0-1.1,0-1.6,0.1c0-6.2,0-12.5,0-18.7c-0.6-0.1-1.1-0.2-1.7-0.3
			c-1.6,4.9-3.1,9.8-5,14.6c-0.6,1.6-2,3-3.1,4.4c-1.2-1.5-2.9-2.8-3.5-4.5c-1.7-4.4-3-9.1-4.4-13.6c-0.5,0-1,0-1.6,0c0,6,0,12,0,18
			c-0.6,0-1.2-0.1-1.9-0.1c0-7.8,0-15.6,0-23.7c3.1-1.3,4.7-0.1,5.7,3.3c1.5,5.6,3.4,11.1,5.5,17.8c2.1-6.6,3.8-12,5.6-17.5
			C1293.5,509.7,1293.5,509.7,1298.1,510.4z"/>
		<path id="XMLID_43_" d="M1261.3,512.8c-3-0.4-5.2-0.7-7.4-0.9c0-0.4,0-0.8,0-1.2c5.6,0,11.2,0,16.8,0c0.1,0.3,0.2,0.5,0.3,0.8
			c-2.1,0.5-4.2,0.9-6.6,1.4c-1.6,6.8,1,14.4-1.3,21.3c-0.6,0-1.2,0-1.8,0C1261.3,527.1,1261.3,520,1261.3,512.8z"/>
		<path id="XMLID_40_" class="st0" d="M43.3,605.1c-9.1,0.1-15.4-6-15.5-15.1c-0.2-9.2,6.3-16,15.3-16c8.8,0,15.3,6.6,15.4,15.5
			C58.5,598.5,52.1,605,43.3,605.1z M48.5,589.6c0.4,0.1,0.7,0.1,1.1,0.2c0.2-2.8,1.6-6.5,0.3-8.2c-3.5-4.9-9-1.8-13.7-2.6
			c0,7.4,0,14.1,0,21.3c6.3-1.1,1.6-6.8,4.3-9c4.1-0.9,5.8,1.2,6.5,4.9c0.5,2.4,1,5.2,5,3.3C50.9,596.1,49.7,592.9,48.5,589.6z"/>
		<path id="XMLID_37_" d="M48.5,589.6c1.2,3.2,2.4,6.5,3.5,9.8c-3.9,1.9-4.5-0.8-5-3.3c-0.7-3.7-2.5-5.7-6.5-4.9
			c-2.7,2.2,2,7.9-4.3,9c0-7.2,0-13.9,0-21.3c4.7,0.7,10.2-2.3,13.7,2.6c1.3,1.8-0.1,5.4-0.3,8.2C49.3,589.7,48.9,589.7,48.5,589.6z
			 M40,589.3c2.9-1.2,5-1.8,6.7-2.9c0.5-0.3,0.2-3.2-0.4-3.4c-1.9-0.8-4.1-0.9-6.3-1.3C40,584.3,40,586.1,40,589.3z"/>
		<path id="XMLID_36_" class="st0" d="M40,589.3c0-3.2,0-5,0-7.7c2.2,0.4,4.4,0.5,6.3,1.3c0.6,0.2,0.9,3.1,0.4,3.4
			C45,587.5,42.9,588.1,40,589.3z"/>
	</g>
</g>
</svg>
