<?xml version="1.0" encoding="UTF-8" standalone="no"?>
<!-- Created with Inkscape (http://www.inkscape.org/) -->

<svg
   xmlns:dc="http://purl.org/dc/elements/1.1/"
   xmlns:cc="http://creativecommons.org/ns#"
   xmlns:rdf="http://www.w3.org/1999/02/22-rdf-syntax-ns#"
   xmlns:svg="http://www.w3.org/2000/svg"
   xmlns="http://www.w3.org/2000/svg"
   xmlns:sodipodi="http://sodipodi.sourceforge.net/DTD/sodipodi-0.dtd"
   xmlns:inkscape="http://www.inkscape.org/namespaces/inkscape"
   width="496mm"
   height="496mm"
   viewBox="0 0 496 496"
   version="1.1"
   id="svg1078"
   inkscape:export-filename="C:\Users\suitedoalex\sites\xiaomi-logo.png"
   inkscape:export-xdpi="209.75"
   inkscape:export-ydpi="209.75"
   inkscape:version="0.92.2 (5c3e80d, 2017-08-06)"
   sodipodi:docname="xiaomi-logo.svg">
  <defs
     id="defs1072" />
  <sodipodi:namedview
     id="base"
     pagecolor="#ffffff"
     bordercolor="#666666"
     borderopacity="1.0"
     inkscape:pageopacity="0.0"
     inkscape:pageshadow="2"
     inkscape:zoom="0.175"
     inkscape:cx="267.32034"
     inkscape:cy="1088.5401"
     inkscape:document-units="mm"
     inkscape:current-layer="layer1"
     showgrid="false"
     inkscape:window-width="1600"
     inkscape:window-height="837"
     inkscape:window-x="-8"
     inkscape:window-y="-8"
     inkscape:window-maximized="1" />
  <metadata
     id="metadata1075">
    <rdf:RDF>
      <cc:Work
         rdf:about="">
        <dc:format>image/svg+xml</dc:format>
        <dc:type
           rdf:resource="http://purl.org/dc/dcmitype/StillImage" />
        <dc:title></dc:title>
      </cc:Work>
    </rdf:RDF>
  </metadata>
  <g
     inkscape:label="Layer 1"
     inkscape:groupmode="layer"
     id="layer1"
     transform="translate(0,199)">
    <rect
       style="fill:#ff6709;fill-opacity:1;fill-rule:evenodd;stroke-width:37.02790833"
       id="rect837-7-5"
       width="356.72275"
       height="357.07129"
       x="69.638626"
       y="-129.53564"
       inkscape:export-xdpi="3.5601881"
       inkscape:export-ydpi="3.5601881" />
    <g
       transform="matrix(2.8722306,0,0,-2.9852553,-1498.8303,1072.6172)"
       style="fill:#ffffff"
       id="g15-0-4-7-3"
       inkscape:export-xdpi="3.5601881"
       inkscape:export-ydpi="3.5601881">
      <path
         inkscape:connector-curvature="0"
         d="m 637.87,362.27 h -8.221 c -0.352,0 -0.637,-0.28 -0.637,-0.625 v -37.509 c 0,-0.342 0.285,-0.622 0.637,-0.622 h 8.221 c 0.349,0 0.638,0.28 0.638,0.622 v 37.509 c 0,0.345 -0.289,0.625 -0.638,0.625"
         id="path9-6-1-7-7"
         style="fill:#ffffff" />
      <path
         inkscape:connector-curvature="0"
         d="m 609.8,362.27 h -31.315 c -0.352,0 -0.635,-0.28 -0.635,-0.625 v -37.509 c 0,-0.342 0.283,-0.622 0.635,-0.622 h 8.223 c 0.35,0 0.64,0.28 0.64,0.622 v 29.439 c 0,0.34 0.283,0.622 0.635,0.622 h 17.713 c 4.981,0 6.395,-3.815 6.395,-6.276 v -23.785 c 0,-0.342 0.286,-0.622 0.638,-0.622 h 8.218 c 0.35,0 0.637,0.28 0.637,0.622 v 26.609 c 0,2.195 -0.264,5.351 -3.096,8.129 -2.963,2.9 -5.666,3.396 -8.688,3.396"
         id="path11-2-4-7-5"
         style="fill:#ffffff" />
      <path
         inkscape:connector-curvature="0"
         d="m 604.04,347.33 h -8.633 c -0.352,0 -0.641,-0.28 -0.641,-0.623 v -22.574 c 0,-0.341 0.289,-0.621 0.641,-0.621 h 8.633 c 0.349,0 0.635,0.28 0.635,0.621 v 22.574 c 0,0.343 -0.286,0.623 -0.635,0.623"
         id="path13-1-6-6-8"
         style="fill:#ffffff" />
    </g>
  </g>
</svg>
